<svg width="56" height="60" viewBox="0 0 56 60" fill="none" xmlns="http://www.w3.org/2000/svg">
<g id="1291759_biology_chemistry_experiment_science_test tube_icon 1" clip-path="url(#clip0_1_509)">
<g id="People">
<g id="Icon-24">
<path id="chemistry-tube" fill-rule="evenodd" clip-rule="evenodd" d="M28.9974 32C28.9974 33.103 29.8944 34 30.9974 34C32.1004 34 32.9974 33.103 32.9974 32C32.9974 30.897 32.1004 30 30.9974 30C29.8944 30 28.9974 30.897 28.9974 32ZM28.9974 23C28.9974 21.897 28.1004 21 26.9974 21C25.8944 21 24.9974 21.897 24.9974 23C24.9974 24.103 25.8944 25 26.9974 25C28.1004 25 28.9974 24.103 28.9974 23ZM24.9974 36C24.4454 36 23.9974 36.449 23.9974 37C23.9974 37.551 24.4454 38 24.9974 38C25.5494 38 25.9974 37.551 25.9974 37C25.9974 36.449 25.5494 36 24.9974 36ZM24.9974 34C26.6514 34 27.9974 35.346 27.9974 37C27.9974 38.654 26.6514 40 24.9974 40C23.3434 40 21.9974 38.654 21.9974 37C21.9974 35.346 23.3434 34 24.9974 34ZM55.6524 58.206C55.0404 59.363 53.7424 60 51.9974 60H3.99744C1.65644 60 0.710436 58.86 0.355436 58.18C-0.321564 56.885 -0.0225638 55.153 1.17644 53.429L19.1654 26.445C19.1654 26.445 19.9974 25.109 19.9974 23V9C19.9974 8.448 20.4444 8 20.9974 8C21.5504 8 21.9974 8.448 21.9974 9V23C21.9974 25.735 20.8824 27.474 20.8344 27.547L9.70344 44.243C12.9114 44.693 20.7514 45.531 26.7554 44.03C34.9034 41.994 42.9034 43.946 43.2394 44.03C43.7754 44.164 44.1014 44.706 43.9674 45.242C43.8334 45.777 43.2874 46.101 42.7554 45.97C42.6784 45.952 34.8914 44.059 27.2394 45.97C24.4654 46.664 21.3784 46.895 18.5004 46.895C13.9714 46.895 9.95844 46.324 8.47644 46.085L2.82944 54.555C2.07044 55.646 1.81144 56.649 2.12844 57.254C2.46744 57.903 3.44444 58 3.99744 58H51.9974C52.9514 58 53.6404 57.734 53.8844 57.271C54.1934 56.686 53.9274 55.673 53.1714 54.563L35.1654 27.555C35.1174 27.483 33.9974 25.771 33.9974 23V5C33.9974 4.448 34.4444 4 34.9974 4H35.9974V2H19.9974V4H30.9974C31.5504 4 31.9974 4.448 31.9974 5C31.9974 5.552 31.5504 6 30.9974 6H19.9974C18.8944 6 17.9974 5.103 17.9974 4V2C17.9974 0.897 18.8944 0 19.9974 0H35.9974C37.1004 0 37.9974 0.897 37.9974 2V4C37.9974 5.103 37.1004 6 35.9974 6V23C35.9974 25.137 36.8204 26.433 36.8294 26.445L54.8294 53.445C56.0404 55.222 56.3344 56.916 55.6524 58.206Z" fill="#1365A0"/>
</g>
</g>
</g>
<defs>
<clipPath id="clip0_1_509">
<rect width="56" height="60" fill="white"/>
</clipPath>
</defs>
</svg>
